<svg width="288" height="78" viewBox="0 0 288 78" fill="none" xmlns="http://www.w3.org/2000/svg">
<g clip-path="url(#clip0_27304_66599)">
<path d="M288 0H0V78H288V0Z" fill="#E31E24"/>
<path d="M76.0186 20.1511L78.143 20.7928C77.9583 21.4346 77.7735 21.893 77.4964 22.2597C77.2193 22.6264 76.7575 22.9931 76.2957 23.1765C75.8338 23.3598 75.2796 23.4515 74.5407 23.4515C73.7094 23.4515 72.9705 23.3598 72.4163 23.0848C71.8621 22.8097 71.4002 22.3514 71.0308 21.8013C70.6613 21.1595 70.4766 20.3344 70.4766 19.4176C70.4766 18.1341 70.846 17.1257 71.4926 16.3923C72.2315 15.6588 73.1552 15.3838 74.4483 15.3838C75.4644 15.3838 76.2033 15.5671 76.8499 16.0255C77.4041 16.3923 77.8659 17.034 78.143 17.8591L76.0186 18.3175C75.9262 18.0425 75.8338 17.8591 75.7415 17.7674C75.5567 17.5841 75.4644 17.4007 75.2796 17.309C75.0949 17.2174 74.8178 17.1257 74.6331 17.1257C74.0789 17.1257 73.617 17.309 73.3399 17.7674C73.0628 18.1341 72.9705 18.6842 72.9705 19.4176C72.9705 20.3344 73.0628 20.8845 73.3399 21.2512C73.617 21.6179 73.9865 21.7096 74.4483 21.7096C74.9102 21.7096 75.2796 21.6179 75.5567 21.3429C75.7415 20.9762 75.9262 20.6095 76.0186 20.1511Z" fill="white"/>
<path d="M79.8047 15.4756H86.3627V17.1258H82.2062V18.4093H85.9933V20.0595H82.2062V21.5264H86.4551V23.3599H79.8047V15.4756Z" fill="white"/>
<path d="M87.6562 15.4756H95.0456V17.4008H92.5517V23.3599H90.1502V17.4008H87.6562V15.4756Z" fill="white"/>
<path d="M99.016 21.6179H100.309C101.048 21.6179 101.418 21.3429 101.418 20.7928C101.418 20.3344 101.048 20.0594 100.309 20.0594H99.016V21.6179ZM99.016 18.5009H100.309C101.51 18.5009 102.434 18.6842 102.988 19.1426C103.542 19.601 103.819 20.2427 103.819 21.0679C103.819 21.8013 103.542 22.3513 102.988 22.7181C102.434 23.0848 101.695 23.2681 100.679 23.2681H96.4297V15.3838H98.9236V18.5009H99.016Z" fill="white"/>
<path d="M109.176 15.4756H112.409L113.702 20.2429L114.903 15.4756H118.135V23.3599H116.103V17.3092L114.533 23.3599H112.778L111.208 17.3092V23.3599H109.176V15.4756Z" fill="white"/>
<path d="M124.416 20.3345L123.585 17.4925L122.754 20.3345H124.416ZM124.97 22.0764H122.199L121.83 23.3599H119.336L122.292 15.4756H124.97L127.926 23.3599H125.34L124.97 22.0764Z" fill="white"/>
<path d="M135.41 17.4008H131.53V23.3599H129.129V15.4756H135.41V17.4008Z" fill="white"/>
<path d="M141.229 20.3345L140.397 17.4925L139.566 20.3345H141.229ZM141.783 22.0764H139.012L138.642 23.3599H136.148L139.104 15.4756H141.783L144.739 23.3599H142.152L141.783 22.0764Z" fill="white"/>
<path d="M150.835 19.0508C151.759 19.3258 152.22 19.8759 152.22 20.7927C152.22 21.5261 151.943 22.1679 151.297 22.7179C150.743 23.1763 149.819 23.4514 148.803 23.4514C146.956 23.4514 145.755 22.7179 145.293 21.1594L147.602 20.9761C147.695 21.5261 148.064 21.8012 148.711 21.8012C149.08 21.8012 149.265 21.7095 149.449 21.5261C149.634 21.3428 149.727 21.1594 149.727 20.7927C149.727 20.5177 149.634 20.2426 149.357 20.0593C149.172 19.8759 148.803 19.7842 148.433 19.7842H147.787V18.4091H148.341C148.618 18.4091 148.895 18.3174 149.08 18.134C149.265 17.9507 149.357 17.7673 149.357 17.4923C149.357 17.0339 149.08 16.8505 148.526 16.8505C147.972 16.8505 147.695 17.1256 147.602 17.584L145.385 17.3089C145.755 15.9337 146.771 15.292 148.618 15.292C149.634 15.292 150.373 15.4753 150.927 15.8421C151.482 16.2088 151.759 16.7588 151.759 17.4006C151.851 18.2257 151.574 18.7758 150.835 19.0508Z" fill="white"/>
<path d="M161.457 15.4756V23.3599H159.148V19.051L156.192 23.3599H153.883V15.4756H156.192V19.8762L159.24 15.4756H161.457Z" fill="white"/>
<path d="M163.488 15.4756H165.982V18.2259H168.661V15.4756H171.155V23.3599H168.661V20.1512H165.982V23.3599H163.488V15.4756Z" fill="white"/>
<path d="M175.31 19.4175C175.31 20.2426 175.495 20.7927 175.772 21.1594C176.049 21.5261 176.511 21.7095 176.973 21.7095C177.527 21.7095 177.897 21.5261 178.174 21.1594C178.451 20.7927 178.636 20.2426 178.636 19.3258C178.636 18.5924 178.451 18.0423 178.174 17.6756C177.897 17.3089 177.435 17.1256 176.973 17.1256C176.511 17.1256 176.049 17.3089 175.772 17.6756C175.403 18.0423 175.31 18.5924 175.31 19.4175ZM172.816 19.4175C172.816 18.134 173.186 17.1256 173.925 16.3921C174.664 15.6587 175.68 15.292 176.973 15.292C178.266 15.292 179.282 15.6587 180.021 16.3921C180.76 17.1256 181.129 18.0423 181.129 19.3258C181.129 20.2426 180.945 20.9761 180.668 21.6178C180.391 22.1679 179.929 22.6263 179.282 22.993C178.728 23.3597 177.989 23.4514 177.065 23.4514C176.142 23.4514 175.403 23.268 174.848 22.993C174.294 22.7179 173.832 22.2596 173.463 21.6178C173.001 21.0677 172.816 20.3343 172.816 19.4175Z" fill="white"/>
<path d="M185.287 21.618H186.58C187.042 21.618 187.319 21.5264 187.504 21.4347C187.688 21.2513 187.781 21.068 187.781 20.7929C187.781 20.5179 187.688 20.3345 187.504 20.2429C187.319 20.0595 187.042 20.0595 186.58 20.0595H185.379V21.618H185.287ZM185.287 18.5927H186.395C186.765 18.5927 187.042 18.501 187.227 18.4093C187.411 18.3176 187.411 18.0426 187.411 17.8592C187.411 17.6759 187.319 17.4925 187.227 17.3092C187.042 17.2175 186.857 17.1258 186.488 17.1258H185.379V18.5927H185.287ZM182.793 15.4756H187.411C188.15 15.4756 188.797 15.6589 189.166 16.0257C189.536 16.3924 189.813 16.8508 189.813 17.4008C189.813 17.8592 189.628 18.2259 189.351 18.5927C189.166 18.776 188.889 18.9594 188.52 19.1427C189.074 19.2344 189.536 19.5094 189.813 19.8762C190.09 20.2429 190.182 20.6096 190.182 21.1596C190.182 21.5264 190.09 21.8931 189.905 22.2598C189.72 22.6265 189.443 22.8099 189.074 22.9932C188.889 23.0849 188.52 23.1766 188.15 23.2683C187.596 23.3599 187.227 23.3599 187.042 23.3599H182.793V15.4756Z" fill="white"/>
<path d="M196.739 17.9512H198.402L196.924 20.4265L198.402 22.9018H196.739L194.984 20.4265L196.739 17.9512ZM199.51 17.9512H201.173L199.695 20.4265L201.173 22.9018H199.51L197.755 20.4265L199.51 17.9512Z" fill="white"/>
<path d="M201.914 15.4756H204.593L205.701 18.6843L206.809 15.4756H209.303L206.717 21.5264C206.532 21.9848 206.348 22.3515 206.163 22.6265C205.978 22.9015 205.793 23.0849 205.424 23.2683C205.147 23.4516 204.685 23.5433 204.131 23.5433C203.854 23.5433 203.3 23.5433 202.653 23.4516V21.8014C203.022 21.8014 203.392 21.8931 203.577 21.8931C204.131 21.8931 204.5 21.7097 204.593 21.2513L201.914 15.4756Z" fill="white"/>
<path d="M219.002 21.5264V17.4008H217.062V17.4925C217.062 18.5927 216.877 19.8762 216.508 21.5264H219.002ZM222.327 25.1018H220.387V23.3599H215.307V25.1018H213.367V21.5264H214.198C214.66 20.2429 214.845 18.776 214.845 17.2175V15.4756H221.495V21.5264H222.327V25.1018Z" fill="white"/>
<path d="M225.838 19.4175C225.838 20.2426 226.022 20.7927 226.299 21.1594C226.577 21.5261 227.038 21.7095 227.5 21.7095C228.054 21.7095 228.424 21.5261 228.701 21.1594C228.978 20.7927 229.163 20.2426 229.163 19.3258C229.163 18.5924 228.978 18.0423 228.701 17.6756C228.424 17.3089 227.962 17.1256 227.5 17.1256C227.038 17.1256 226.577 17.3089 226.299 17.6756C225.93 18.0423 225.838 18.5924 225.838 19.4175ZM223.344 19.4175C223.344 18.134 223.713 17.1256 224.452 16.3921C225.191 15.6587 226.207 15.292 227.5 15.292C228.793 15.292 229.809 15.6587 230.548 16.3921C231.287 17.1256 231.657 18.0423 231.657 19.3258C231.657 20.2426 231.472 20.9761 231.195 21.6178C230.918 22.1679 230.456 22.6263 229.809 22.993C229.255 23.3597 228.516 23.4514 227.593 23.4514C226.669 23.4514 225.93 23.268 225.376 22.993C224.822 22.7179 224.267 22.2596 223.99 21.6178C223.528 21.0677 223.344 20.3343 223.344 19.4175Z" fill="white"/>
<path d="M233.316 15.4756H236.549L237.75 20.2429L238.951 15.4756H242.184V23.3599H240.152V17.3092L238.674 23.3599H236.826L235.256 17.3092V23.3599H233.316V15.4756Z" fill="white"/>
<path d="M248.559 20.3345L247.728 17.4925L246.897 20.3345H248.559ZM249.021 22.0764H246.25L245.881 23.3599H243.387L246.342 15.4756H249.021L251.977 23.3599H249.391L249.021 22.0764Z" fill="white"/>
<path d="M257.331 17.9512H255.668L257.146 20.4265L255.668 22.9018H257.331L259.086 20.4265L257.331 17.9512ZM254.467 17.9512H252.805L254.283 20.4265L252.805 22.9018H254.467L256.222 20.4265L254.467 17.9512Z" fill="white"/>
<path fill-rule="evenodd" clip-rule="evenodd" d="M47.5675 46.8293C46.921 47.5628 46.0896 48.1128 45.2583 48.2962C44.427 48.4795 43.0415 48.5712 41.1942 48.5712C41.0095 48.5712 40.8247 48.5712 40.64 48.5712H33.8048V39.4034H41.1942C43.8728 39.4034 45.7202 39.7701 46.921 40.5035C48.1217 41.237 48.6759 42.4288 48.6759 43.9873C48.5836 45.0874 48.2141 46.0042 47.5675 46.8293ZM54.1256 38.0282C52.9248 36.2863 51.4469 35.1862 49.692 34.5444C47.937 33.9027 45.8125 33.6276 43.2263 33.6276H33.7125V28.1269H52.8324V22.2595H26.6926V54.4386H43.2263C46.0896 54.4386 48.3988 54.1636 49.9691 53.5219C51.5393 52.8801 52.9248 51.78 54.1256 50.1298C55.3263 48.4795 55.9729 46.4626 55.9729 44.079C55.8805 41.6953 55.3263 39.6784 54.1256 38.0282ZM39.1621 64.5233C53.479 64.5233 65.1172 52.9718 65.1172 38.7616C65.1172 24.5515 53.479 13 39.1621 13C24.8453 13 13.207 24.5515 13.207 38.7616C13.207 52.8801 24.8453 64.5233 39.1621 64.5233Z" fill="white"/>
<path fill-rule="evenodd" clip-rule="evenodd" d="M87.1938 47.8377C86.1778 49.1212 84.8847 49.6713 83.3144 49.6713C83.222 49.6713 83.2221 49.6713 83.1297 49.6713C81.5594 49.5796 80.2663 48.9378 79.1579 47.6543C78.0495 46.2792 77.4953 44.2622 77.4953 41.4202C77.4953 38.9449 78.0495 37.1113 79.1579 35.8278C80.2663 34.5443 81.5594 33.9943 83.1297 33.9026C84.6999 33.9026 85.9931 34.5443 87.1015 35.8278C88.2099 37.1113 88.6717 39.0366 88.6717 41.6952C88.7641 44.5373 88.2099 46.5542 87.1938 47.8377ZM92.274 32.069C90.0572 29.502 86.3625 28.4019 83.1297 28.4936C80.451 28.5852 78.0495 29.5937 76.9411 31.4273V29.227H70.6602V64.0648H77.4029V52.4216C78.8808 53.9802 81.0052 54.8053 83.1297 54.9886C86.4549 55.2637 90.0572 53.9802 92.274 51.4132C94.3061 49.1212 95.4145 45.8208 95.4145 41.6036C95.3221 37.5697 94.3061 34.4527 92.274 32.069Z" fill="white"/>
<path fill-rule="evenodd" clip-rule="evenodd" d="M101.789 29.2266H108.162V44.9952L118.507 29.2266H125.158V54.4381H118.692V38.3027L108.162 54.4381H101.789V29.2266Z" fill="white"/>
<path fill-rule="evenodd" clip-rule="evenodd" d="M155.361 36.6528L148.71 37.8446C148.526 36.5611 147.971 35.5526 147.232 34.9109C146.401 34.2691 145.385 33.9024 144.184 33.9024C142.522 33.9024 141.136 34.4525 140.213 35.6443C139.197 36.8361 138.735 38.6697 138.735 41.4201C138.735 44.4454 139.197 46.554 140.213 47.7459C141.229 48.9377 142.614 49.5794 144.277 49.5794C145.57 49.5794 146.586 49.2127 147.417 48.4793C148.249 47.7459 148.803 46.554 149.172 44.8122L155.73 45.9123C155.084 48.9377 153.698 51.2296 151.758 52.6965C149.819 54.255 147.232 54.9885 143.907 54.9885C140.213 54.9885 137.257 53.7966 135.04 51.5047C132.823 49.2127 131.715 46.004 131.715 41.8785C131.715 37.7529 132.823 34.4525 135.04 32.1605C137.257 29.8686 140.213 28.6768 144 28.6768C147.048 28.6768 149.542 29.3185 151.389 30.6937C153.236 31.9772 154.529 33.9941 155.361 36.6528Z" fill="white"/>
<path fill-rule="evenodd" clip-rule="evenodd" d="M159.148 29.2266H182.055V34.6356H173.927V54.4381H167.184V34.6356H159.148V29.2266Z" fill="white"/>
<path fill-rule="evenodd" clip-rule="evenodd" d="M203.022 47.5634C201.822 48.8469 200.344 49.5803 198.589 49.5803C196.834 49.5803 195.356 48.9385 194.155 47.5634C192.954 46.1882 192.4 44.3546 192.4 41.7876C192.4 39.3123 192.954 37.3871 194.155 36.0119C195.356 34.7284 196.834 33.995 198.589 33.995C200.344 33.995 201.822 34.6367 203.022 36.0119C204.223 37.3871 204.777 39.2206 204.777 41.696C204.777 44.2629 204.223 46.1882 203.022 47.5634ZM208.01 32.3448C205.516 29.8694 202.376 28.5859 198.589 28.5859C196.095 28.5859 193.878 29.136 191.846 30.2361C189.814 31.3363 188.244 32.8948 187.135 35.0034C186.027 37.112 185.473 39.2206 185.473 41.4209C185.473 44.3546 186.027 46.7383 187.135 48.7552C188.244 50.7721 189.814 52.3306 191.938 53.3391C194.063 54.3476 196.28 54.8976 198.589 54.8976C202.376 54.8976 205.424 53.6141 207.918 51.1388C210.412 48.6635 211.612 45.4548 211.612 41.696C211.705 37.9371 210.504 34.8201 208.01 32.3448Z" fill="white"/>
<path fill-rule="evenodd" clip-rule="evenodd" d="M219.187 29.2266H241.632V54.4381H234.982V34.6356H225.838V45.912C225.838 48.7541 225.468 50.771 224.822 51.9628C224.175 53.1546 223.436 53.8881 222.605 54.2548C221.774 54.6215 220.48 54.8048 218.725 54.8048C217.617 54.8048 216.232 54.6215 214.477 54.3465V49.4875C214.661 49.4875 215.031 49.4875 215.585 49.4875C216.324 49.5792 216.786 49.5792 217.248 49.5792C218.171 49.5792 218.725 49.3041 218.91 48.6624C219.095 48.1123 219.187 46.4621 219.187 43.7118V29.2266Z" fill="white"/>
<path fill-rule="evenodd" clip-rule="evenodd" d="M267.031 49.2125C266.477 49.8542 265.276 50.1292 263.244 50.1292H256.963V43.7118H261.304C261.674 43.7118 262.043 43.7118 262.32 43.7118C264.168 43.8034 265.553 43.9868 266.292 44.3535C267.216 44.8119 267.677 45.637 267.677 46.8288C267.862 47.8373 267.585 48.5707 267.031 49.2125ZM273.404 42.7033C272.481 41.4198 271.28 40.5947 269.894 40.228C268.509 39.8613 266.477 39.6779 263.798 39.6779H257.055V29.2266H250.312V54.4381H264.722C268.047 54.4381 270.633 53.7964 272.296 52.6046C273.958 51.4127 274.79 49.5792 274.79 47.1039C274.79 45.4536 274.328 43.9868 273.404 42.7033Z" fill="white"/>
</g>
<defs>
<clipPath id="clip0_27304_66599">
<rect width="288" height="78" fill="white"/>
</clipPath>
</defs>
</svg>
