<?xml version="1.0" encoding="utf-8"?>
<!-- Generator: Adobe Illustrator 22.1.0, SVG Export Plug-In . SVG Version: 6.00 Build 0)  -->
<svg version="1.1" id="Слой_1" xmlns="http://www.w3.org/2000/svg" xmlns:xlink="http://www.w3.org/1999/xlink" x="0px" y="0px"
	 viewBox="0 0 387.1 36" style="enable-background:new 0 0 387.1 36;" xml:space="preserve">
<style type="text/css">
	.st0{fill:#7e8588;}
	.st1{fill:#ff8c20;}
</style>
<g>
	<path class="st0" d="M95.9,0.2c0,0,12.3,23.9,12.6,24.6c-0.3,0.7-4.9,10.9-4.9,10.9h8l17.1-35.5h-7.3c0,0-7.5,15.4-8.8,17.8
		c-1.3-2.4-8.9-17.8-8.9-17.8L95.9,0.2z"/>
	<path class="st1" d="M227.8,0.3h-22.3v20.9c0,2.1,0,6.1-1.4,7.4c-0.6,0.5-1.7,0.9-2.7,0.9c-0.5,0-1.1-0.2-1.4-0.2l-1-0.3l-0.1,1
		v5.4l0.6,0.2c0.8,0.2,1.6,0.3,2.7,0.3c3.2,0,5.2-1.2,6.5-2.2c3.5-2.9,3.7-6.8,3.7-11c0,0,0-14.2,0-15.6c1.3,0,8.4,0,9.6,0
		c0,1.4-0.1,28.5-0.1,28.5h6.7V0.3H227.8z"/>
	<path class="st1" d="M292.6,0.4h-7.1c0,0-9.8,10.1-11.9,12.3c0-2.8,0-12.3,0-12.3h-6.7v35.4h6.7c0,0,0-11.5,0-14.8
		c2.2,2.8,11.8,14.8,11.8,14.8h8.9c0,0-15.1-18.2-16-19.3c1-1,16.1-16.2,16.1-16.2L292.6,0.4L292.6,0.4z"/>
	<path class="st0" d="M84.4,15.5c0,0-0.8,0-1.3,0c0-1.3,0-7.2,0-8.6c0.7,0,1.3,0,1.3,0c3.7,0,5.5,1.3,5.5,4.2
		C89.9,12.2,89.9,15.5,84.4,15.5z M92.3,2.2c-2.7-1.7-5.4-1.9-7.9-1.9h-7.5H76v35.5h7c0,0,0-12.1,0-13.7c0.7,0,1.3,0,1.3,0
		c2.4,0,5.9-0.3,8.9-2.9c1.3-1.2,3.7-3.8,3.7-8.1C96.9,9,96.3,4.8,92.3,2.2z"/>
	<path class="st1" d="M335.9,15.9c0,0-0.8,0-1.3,0c0-1.3,0-7.2,0-8.6c0.7,0,1.3,0,1.3,0c3.7,0,5.5,1.3,5.5,4.2
		C341.3,12.6,341.3,15.9,335.9,15.9z M343.7,2.7c-2.7-1.7-5.4-1.9-7.9-1.9h-7.5h-0.9v35.5h7c0,0,0-12.1,0-13.7c0.7,0,1.4,0,1.4,0
		c2.4,0,5.9-0.3,8.9-2.9c1.3-1.2,3.7-3.8,3.7-8.1C348.4,9.3,347.8,5.3,343.7,2.7z"/>
	<path class="st0" d="M135.3,0.2h-4.4v35.5h6.8c0,0,0-11,0-18.4c3.7,8,8.4,18.4,8.4,18.4h4.7c0,0,4.6-10,8.3-17.8
		c0,7.2,0,17.9,0,17.9h6.8V0.2h-6.4c0,0-7.6,16.4-11.2,24.1c-3.6-7.7-11-24.1-11-24.1L135.3,0.2L135.3,0.2z"/>
	<path class="st1" d="M173.1,26.1c2.7,2.7,6,3.8,9.1,3.8c5,0,9.9-3,11-9.1h-15.3V15H193c-1-5.9-5.8-8.9-10.6-8.9
		c-2.4,0-6.2,0.7-9.2,3.9V2.2c3.3-1.7,6.4-2.1,9-2.1c6.6,0,10.6,2.4,12.8,4.5c3.3,3.2,5.1,8.3,5.1,13.4c0,7.3-3.4,11.5-5.1,13.1
		c-2.7,2.7-6.8,4.8-12.8,4.8c-4.4,0-7.4-1.3-9-2L173.1,26.1L173.1,26.1z"/>
	<rect x="233.6" y="28.6" class="st1" width="28.2" height="7.1"/>
	<rect x="233.6" y="14.4" class="st0" width="28.1" height="7.1"/>
	<rect x="233.7" y="0.3" class="st1" width="28.1" height="7.1"/>
	<rect x="288.4" y="14.4" class="st0" width="35.4" height="7"/>
	<rect x="302.4" y="0.2" class="st0" width="7.5" height="35.6"/>
	<polygon class="st0" points="20.6,4.2 13.6,4.2 13.6,35.7 20.7,35.7 	"/>
	<path class="st0" d="M44,18c0-6.2,5-11.3,11.3-11.3c6.2,0,11.3,5,11.3,11.3c0,6.2-5,11.3-11.3,11.3C49.1,29.3,44,24.3,44,18z
		 M37.3,18c0,9.9,8.1,18,18,18s18-8.1,18-18s-8.1-18-18-18S37.3,8.1,37.3,18z"/>
	<path class="st1" d="M357.8,18c0-6.2,5-11.3,11.3-11.3c6.2,0,11.3,5,11.3,11.3c0,6.2-5,11.3-11.3,11.3
		C362.9,29.3,357.8,24.3,357.8,18z M351,18c0,9.9,8.1,18,18,18c9.9,0,18-8.1,18-18S379,0,369,0C359.1,0,351,8.1,351,18z"/>
	<path class="st0" d="M6.4,16.8c0-5.7,4.9-10.3,10.9-10.3s10.9,4.6,10.9,10.3s-4.9,10.3-10.9,10.3S6.4,22.4,6.4,16.8z M0,16.8
		c0,9.2,7.7,16.7,17.1,16.7s17.1-7.5,17.1-16.7S26.6,0.1,17.1,0.1S0,7.6,0,16.8z"/>
</g>
</svg>