<?xml version="1.0" encoding="utf-8"?>
<!-- Generator: Adobe Illustrator 24.1.2, SVG Export Plug-In . SVG Version: 6.00 Build 0)  -->
<svg version="1.1" id="Слой_1" xmlns="http://www.w3.org/2000/svg" xmlns:xlink="http://www.w3.org/1999/xlink" x="0px" y="0px"
	 viewBox="0 0 655.1 153.1" style="enable-background:new 0 0 655.1 153.1;" xml:space="preserve">
<style type="text/css">
	.st0{fill:#383938;}
</style>
<g>
	<path class="st0" d="M185.2,129.1c-0.1,2.3-0.3,4.2-0.5,5.6c-0.3,1.4-0.7,2.5-1.2,3.1c-0.6,0.6-1.3,1-2.3,1h-0.6v2h0.6
		c1.5,0,2.7-0.4,3.6-1.3c0.8-0.8,1.4-2.1,1.8-3.7c0.4-1.7,0.6-3.7,0.7-6.2l0.4-10.3h9.5v21.5h2.1v-23.4h-13.7L185.2,129.1z"/>
	<path class="st0" d="M219.7,118.5c-1.5-1-3.2-1.5-5.2-1.5c-2,0-3.7,0.5-5.2,1.5c-1.5,1-2.7,2.4-3.6,4.2c-0.9,1.8-1.3,3.9-1.3,6.4
		c0,2.4,0.4,4.6,1.3,6.4c0.9,1.8,2,3.2,3.6,4.2c1.5,1,3.2,1.5,5.2,1.5c2,0,3.7-0.5,5.2-1.5c1.5-1,2.7-2.4,3.6-4.2
		c0.9-1.8,1.3-3.9,1.3-6.4c0-2.4-0.4-4.6-1.3-6.4C222.4,120.9,221.2,119.5,219.7,118.5z M221.5,134.4c-0.7,1.5-1.6,2.6-2.9,3.4
		c-1.2,0.8-2.6,1.2-4.1,1.2c-1.5,0-2.9-0.4-4.1-1.2c-1.2-0.8-2.2-1.9-2.9-3.4c-0.7-1.5-1-3.3-1-5.4c0-2.1,0.4-3.9,1.1-5.4
		c0.7-1.5,1.7-2.6,2.9-3.4c1.2-0.8,2.6-1.2,4.1-1.2c1.5,0,2.9,0.4,4.1,1.2c1.2,0.8,2.2,1.9,2.9,3.4c0.7,1.5,1,3.3,1,5.4
		C222.5,131.2,222.2,132.9,221.5,134.4z"/>
	<polygon class="st0" points="229.7,140.8 231.8,140.8 231.8,119.3 243.3,119.3 243.3,117.4 229.7,117.4 	"/>
	<polygon class="st0" points="250.3,137 250.2,137 250.2,117.4 248.1,117.4 248.1,140.8 250.1,140.8 263.9,121.2 264.1,121.2 
		264.1,140.8 266.2,140.8 266.2,117.4 264.1,117.4 	"/>
	<path class="st0" d="M277.4,120.2c1.2-0.8,2.5-1.2,4-1.2c0.9,0,1.8,0.1,2.6,0.4c0.8,0.3,1.5,0.7,2.1,1.2c0.6,0.5,1.1,1.1,1.6,1.8
		c0.4,0.7,0.7,1.4,0.9,2.2h2.1c-0.2-1.1-0.5-2.1-1.1-3c-0.5-0.9-1.2-1.7-2-2.4c-0.8-0.7-1.7-1.2-2.8-1.6c-1-0.4-2.2-0.6-3.4-0.6
		c-2,0-3.7,0.5-5.2,1.5c-1.5,1-2.7,2.4-3.6,4.2c-0.9,1.8-1.3,3.9-1.3,6.4c0,2.4,0.4,4.6,1.3,6.4c0.9,1.8,2,3.2,3.6,4.2
		c1.5,1,3.2,1.5,5.2,1.5c1.2,0,2.4-0.2,3.4-0.6c1-0.4,2-0.9,2.8-1.6c0.8-0.7,1.5-1.5,2-2.4c0.5-0.9,0.9-1.9,1.1-3h-2.1
		c-0.2,0.8-0.4,1.5-0.9,2.2c-0.4,0.7-0.9,1.3-1.6,1.8c-0.6,0.5-1.3,0.9-2.1,1.2c-0.8,0.3-1.6,0.4-2.6,0.4c-1.5,0-2.8-0.4-4-1.1
		c-1.2-0.8-2.2-1.9-2.9-3.4c-0.7-1.5-1.1-3.3-1.1-5.5c0-2.2,0.4-4,1.1-5.5C275.2,122.1,276.2,121,277.4,120.2z"/>
	<polygon class="st0" points="294.2,119.3 301.6,119.3 301.6,140.8 303.7,140.8 303.7,119.3 311.1,119.3 311.1,117.4 294.2,117.4 	
		"/>
	<polygon class="st0" points="318.1,137 317.9,137 317.9,117.4 315.8,117.4 315.8,140.8 317.9,140.8 331.6,121.2 331.8,121.2 
		331.8,140.8 334,140.8 334,117.4 331.9,117.4 	"/>
	<path class="st0" d="M354.4,129c-0.5,0.2-1,0.3-1.4,0.4c-0.6,0.1-1.2,0.3-1.8,0.4c-0.6,0.1-1.2,0.2-1.8,0.2
		c-0.6,0.1-1.2,0.1-1.8,0.1c-1.1,0-2.1-0.2-2.9-0.5s-1.4-0.9-1.8-1.6c-0.4-0.7-0.6-1.7-0.6-2.9v-7.8h-2.1v7.8c0,1.6,0.3,3,0.9,4
		c0.6,1,1.4,1.8,2.5,2.3s2.5,0.7,4,0.7c0.7,0,1.3,0,1.9-0.1c0.6-0.1,1.2-0.1,1.8-0.2s1.1-0.2,1.7-0.4c0.5-0.1,1-0.3,1.5-0.4v9.8h2.1
		v-23.4h-2.1V129z"/>
	<polygon class="st0" points="364.8,130 375.5,130 375.5,128.1 364.8,128.1 364.8,119.3 376.2,119.3 376.2,117.4 362.7,117.4 
		362.7,140.8 376.4,140.8 376.4,138.8 364.8,138.8 	"/>
	<path class="st0" d="M386.6,120.2c1.2-0.8,2.5-1.2,4-1.2c0.9,0,1.8,0.1,2.6,0.4c0.8,0.3,1.5,0.7,2.1,1.2c0.6,0.5,1.1,1.1,1.6,1.8
		c0.4,0.7,0.7,1.4,0.9,2.2h2.1c-0.2-1.1-0.5-2.1-1.1-3c-0.5-0.9-1.2-1.7-2-2.4c-0.8-0.7-1.7-1.2-2.8-1.6c-1-0.4-2.2-0.6-3.4-0.6
		c-2,0-3.7,0.5-5.2,1.5c-1.5,1-2.7,2.4-3.6,4.2c-0.9,1.8-1.3,3.9-1.3,6.4c0,2.4,0.4,4.6,1.3,6.4c0.9,1.8,2,3.2,3.6,4.2
		c1.5,1,3.2,1.5,5.2,1.5c1.2,0,2.4-0.2,3.4-0.6c1-0.4,2-0.9,2.8-1.6c0.8-0.7,1.5-1.5,2-2.4c0.5-0.9,0.9-1.9,1.1-3h-2.1
		c-0.2,0.8-0.4,1.5-0.9,2.2c-0.4,0.7-0.9,1.3-1.6,1.8c-0.6,0.5-1.3,0.9-2.1,1.2c-0.8,0.3-1.6,0.4-2.6,0.4c-1.5,0-2.8-0.4-4-1.1
		c-1.2-0.8-2.2-1.9-2.9-3.4c-0.7-1.5-1.1-3.3-1.1-5.5c0-2.2,0.4-4,1.1-5.5C384.5,122.1,385.4,121,386.6,120.2z"/>
	<polygon class="st0" points="420.2,117.4 417.7,117.4 409.1,127.8 407,127.8 407,117.4 404.9,117.4 404.9,140.8 407,140.8 
		407,129.7 410.4,129.7 418.4,140.8 420.9,140.8 411.6,127.9 	"/>
	<path class="st0" d="M431.2,117.4l-8.5,23.4h2.2l2.5-7h9.8l2.5,7h2.2l-8.5-23.4H431.2z M428.1,131.8l4.1-11.6h0.2l4.1,11.6H428.1z"
		/>
	<path class="st0" d="M449.3,118.3c-1.1,0.6-1.9,1.4-2.5,2.5c-0.6,1.1-0.8,2.3-0.8,3.6s0.3,2.6,0.8,3.6c0.6,1,1.4,1.9,2.5,2.4
		c0.3,0.2,0.7,0.3,1,0.4l-5.4,9.9h2.5l5.1-9.5c0.3,0,0.6,0,0.9,0h5.4v9.5h2.1v-23.4h-7.5C451.7,117.4,450.4,117.7,449.3,118.3z
		 M458.8,119.3v10.1h-5.4c-1.2,0-2.2-0.2-3-0.6c-0.8-0.4-1.4-1-1.8-1.7c-0.4-0.7-0.6-1.6-0.6-2.6s0.2-1.9,0.6-2.7
		c0.4-0.8,1-1.4,1.8-1.8s1.8-0.6,3.1-0.6H458.8z"/>
	<polygon class="st0" points="491.4,117.4 488.9,117.4 480.3,127.8 478.2,127.8 478.2,117.4 476.1,117.4 476.1,140.8 478.2,140.8 
		478.2,129.7 481.6,129.7 489.6,140.8 492.1,140.8 482.8,127.9 	"/>
	<path class="st0" d="M509.2,118.5c-1.5-1-3.2-1.5-5.2-1.5c-2,0-3.7,0.5-5.2,1.5c-1.5,1-2.7,2.4-3.6,4.2c-0.9,1.8-1.3,3.9-1.3,6.4
		c0,2.4,0.4,4.6,1.3,6.4c0.9,1.8,2,3.2,3.6,4.2c1.5,1,3.2,1.5,5.2,1.5c2,0,3.7-0.5,5.2-1.5c1.5-1,2.7-2.4,3.6-4.2
		c0.9-1.8,1.3-3.9,1.3-6.4c0-2.4-0.4-4.6-1.3-6.4C511.9,120.9,510.7,119.5,509.2,118.5z M511,134.4c-0.7,1.5-1.6,2.6-2.9,3.4
		c-1.2,0.8-2.6,1.2-4.1,1.2c-1.5,0-2.9-0.4-4.1-1.2c-1.2-0.8-2.2-1.9-2.9-3.4c-0.7-1.5-1-3.3-1-5.4c0-2.1,0.4-3.9,1.1-5.4
		c0.7-1.5,1.7-2.6,2.9-3.4c1.2-0.8,2.6-1.2,4.1-1.2c1.5,0,2.9,0.4,4.1,1.2c1.2,0.8,2.2,1.9,2.9,3.4c0.7,1.5,1,3.3,1,5.4
		C512,131.2,511.7,132.9,511,134.4z"/>
	<polygon class="st0" points="530.3,137.7 530.1,137.7 521.6,117.4 519.2,117.4 519.2,140.8 521.2,140.8 521.2,121.9 521.4,121.9 
		529.2,140.8 531.2,140.8 539,121.9 539.2,121.9 539.2,140.8 541.2,140.8 541.2,117.4 538.7,117.4 	"/>
	<polygon class="st0" points="547.2,140.8 549.3,140.8 549.3,119.3 561.9,119.3 561.9,140.8 564,140.8 564,117.4 547.2,117.4 	"/>
	<path class="st0" d="M576.3,117.4l-8.5,23.4h2.2l2.5-7h9.8l2.5,7h2.2l-8.5-23.4H576.3z M581.6,131.8h-8.4l4.1-11.6h0.2"/>
	<polygon class="st0" points="606.3,128.1 593.1,128.1 593.1,117.4 591,117.4 591,140.8 593.1,140.8 593.1,130 606.3,130 
		606.3,140.8 608.5,140.8 608.5,117.4 606.3,117.4 	"/>
	<polygon class="st0" points="616.9,137 616.7,137 616.7,117.4 614.6,117.4 614.6,140.8 616.7,140.8 630.5,121.2 630.6,121.2 
		630.6,140.8 632.8,140.8 632.8,117.4 630.7,117.4 	"/>
	<path class="st0" d="M642.3,118.3c-1.1,0.6-1.9,1.4-2.5,2.5c-0.6,1.1-0.8,2.3-0.8,3.6s0.3,2.6,0.8,3.6c0.6,1,1.4,1.9,2.5,2.4
		c0.3,0.2,0.7,0.3,1,0.4l-5.4,9.9h2.5l5.1-9.5c0.3,0,0.6,0,0.9,0h5.4v9.5h2.1v-23.4h-7.5C644.8,117.4,643.4,117.7,642.3,118.3z
		 M651.8,119.3v10.1h-5.4c-1.2,0-2.2-0.2-3-0.6s-1.4-1-1.8-1.7c-0.4-0.7-0.6-1.6-0.6-2.6s0.2-1.9,0.6-2.7c0.4-0.8,1-1.4,1.8-1.8
		c0.8-0.4,1.8-0.6,3.1-0.6H651.8z"/>
	<path class="st0" d="M71.4,10.4L71.4,10.4c-20.7,0-40.4,9-53.9,24.6C7.2,46.9,1.2,61.4,0.2,77c-0.9,13.4,2.1,27,8.5,38.8
		c3.8-9.1,7.5-17.4,11-24.8c0.3-0.6,0.6-1.6,0.5-2.6C18.2,73.7,22.7,59,32.3,47.9c9.8-11.3,24.1-17.8,39.1-17.8
		c13.5,0,26.3,5.2,36,14.6c19.1,18.5,20.9,49.2,4,69.9c-9.7,11.9-24.1,18.7-39.6,18.9c-1,0-2,0.5-2.5,0.8
		c-6.8,4.5-14.5,9.3-22.9,14.3c8,3,16.4,4.5,25,4.5c23,0,43.9-10.6,57.6-29.2c20.7-28.1,17.6-67.9-7.1-92.6
		C108.3,17.8,90.4,10.4,71.4,10.4z"/>
	<path class="st0" d="M71.8,58c-6.6,0-13.1,2.7-17.9,7.4l-0.8,0.8C40.6,80.8,22.3,126.1,13.9,148c20.7-11.7,63.6-36.7,75.6-50.5
		l0.1-0.1l0,0c4.3-5,6.3-11.4,5.7-18.1c-0.7-6.6-4-12.6-9.3-16.6C81.9,59.6,77,58,71.8,58L71.8,58"/>
	<line class="st0" x1="71.8" y1="53" x2="71.8" y2="53"/>
	<path class="st0" d="M243.9,40.8c-2.8-5.6-6.8-9.9-12-13c-5.2-3.1-11.3-4.6-18.3-4.6c-7,0-13.1,1.5-18.3,4.6
		c-5.2,3.1-9.2,7.4-12,13c-2.8,5.6-4.2,12.1-4.2,19.6s1.4,13.9,4.2,19.5c2.8,5.6,6.8,9.9,12,13c5.2,3.1,11.3,4.6,18.3,4.6
		c7,0,13.1-1.5,18.3-4.6c5.2-3.1,9.2-7.4,12-13s4.2-12.1,4.2-19.5S246.8,46.4,243.9,40.8z M229.1,72.2c-1.3,3.6-3.2,6.4-5.7,8.5
		c-2.6,2.1-5.8,3.2-9.6,3.2c-3.9,0-7.2-1.1-9.7-3.2c-2.6-2.1-4.5-4.9-5.8-8.5c-1.3-3.6-1.9-7.5-1.9-11.9c0-4.4,0.6-8.4,1.9-12
		c1.3-3.6,3.2-6.4,5.8-8.6c2.6-2.1,5.8-3.2,9.7-3.2c3.8,0,7,1.1,9.6,3.2c2.6,2.1,4.5,5,5.7,8.6c1.3,3.6,1.9,7.6,1.9,12
		C231,64.6,230.3,68.6,229.1,72.2z"/>
	<path class="st0" d="M286.5,97c5.4,0,10-1.3,13.7-3.8c3.7-2.6,6.4-5.9,8-9.9h0.8V96h16.5V24h-17v41.7c0,3.7-0.8,6.7-2.3,9.1
		c-1.5,2.4-3.4,4.2-5.8,5.5s-4.8,1.8-7.3,1.8c-4.1,0-7.3-1.3-9.8-4c-2.5-2.7-3.8-6.3-3.8-10.9V24h-17v45.9c0,5.8,1,10.7,3,14.7
		c2,4,4.9,7.1,8.5,9.2C277.7,95.9,281.8,97,286.5,97z"/>
	<path class="st0" d="M375.3,82.5c-0.9,0.2-1.9,0.2-2.9,0.2c-1.4,0-2.7-0.2-3.8-0.7c-1.2-0.4-2.1-1.3-2.8-2.5
		c-0.7-1.2-1.1-2.9-1.1-5.2V37.1h14.2V24h-14.2V6.8h-17V24h-10.2v13.1h10.2v40.1c0,4.5,0.9,8.3,2.9,11.3c2,3,4.7,5.2,8.1,6.6
		c3.4,1.4,7.2,2.1,11.5,1.9c2.4-0.1,4.4-0.3,6.1-0.7c1.7-0.4,3-0.7,3.9-1l-2.9-13.3C376.8,82.2,376.1,82.3,375.3,82.5z"/>
	<rect x="394.5" class="st0" width="17" height="96"/>
	<path class="st0" d="M478.7,92.8c5.2-3.1,9.2-7.4,12-13s4.2-12.1,4.2-19.5s-1.4-14-4.2-19.6c-2.8-5.6-6.8-9.9-12-13
		c-5.2-3.1-11.3-4.6-18.3-4.6c-7,0-13.1,1.5-18.3,4.6c-5.2,3.1-9.2,7.4-12,13c-2.8,5.6-4.2,12.1-4.2,19.6s1.4,13.9,4.2,19.5
		c2.8,5.6,6.8,9.9,12,13c5.2,3.1,11.3,4.6,18.3,4.6C467.4,97.5,473.5,95.9,478.7,92.8z M445,72.2c-1.3-3.6-1.9-7.5-1.9-11.9
		c0-4.4,0.6-8.4,1.9-12c1.3-3.6,3.2-6.4,5.8-8.6c2.6-2.1,5.8-3.2,9.7-3.2c3.8,0,7,1.1,9.6,3.2c2.6,2.1,4.5,5,5.7,8.6
		c1.3,3.6,1.9,7.6,1.9,12c0,4.4-0.6,8.3-1.9,11.9c-1.3,3.6-3.2,6.4-5.7,8.5c-2.6,2.1-5.8,3.2-9.6,3.2c-3.9,0-7.2-1.1-9.7-3.2
		C448.2,78.6,446.3,75.7,445,72.2z"/>
	<path class="st0" d="M575.2,60.3c0-7.4-1.4-14-4.2-19.6c-2.8-5.6-6.8-9.9-12-13c-5.2-3.1-11.3-4.6-18.3-4.6c-7,0-13.1,1.5-18.3,4.6
		c-5.2,3.1-9.2,7.4-12,13c-2.8,5.6-4.2,12.1-4.2,19.6s1.4,13.9,4.2,19.5c2.8,5.6,6.8,9.9,12,13c5.2,3.1,11.3,4.6,18.3,4.6
		c7,0,13.1-1.5,18.3-4.6c5.2-3.1,9.2-7.4,12-13S575.2,67.8,575.2,60.3z M556.1,72.2c-1.3,3.6-3.2,6.4-5.7,8.5
		c-2.6,2.1-5.8,3.2-9.6,3.2c-3.9,0-7.2-1.1-9.7-3.2c-2.6-2.1-4.5-4.9-5.8-8.5c-1.3-3.6-1.9-7.5-1.9-11.9c0-4.4,0.6-8.4,1.9-12
		c1.3-3.6,3.2-6.4,5.8-8.6c2.6-2.1,5.8-3.2,9.7-3.2c3.8,0,7,1.1,9.6,3.2c2.6,2.1,4.5,5,5.7,8.6c1.3,3.6,1.9,7.6,1.9,12
		C558,64.6,557.4,68.6,556.1,72.2z"/>
	<polygon class="st0" points="625.5,55.1 653.4,24 633.6,24 607.7,52.9 606.5,52.9 606.5,0 589.5,0 589.5,96 606.5,96 606.5,71.8 
		612.7,65.2 634.8,96 655.1,96 	"/>
</g>
</svg>
