<?xml version="1.0" encoding="utf-8"?>
<!-- Generator: Adobe Illustrator 24.1.2, SVG Export Plug-In . SVG Version: 6.00 Build 0)  -->
<svg version="1.1" id="Слой_1" xmlns="http://www.w3.org/2000/svg" xmlns:xlink="http://www.w3.org/1999/xlink" x="0px" y="0px"
	 viewBox="0 0 655.1 142.7" style="enable-background:new 0 0 655.1 142.7;" xml:space="preserve">
<style type="text/css">
	.st0{fill:#383938;}
</style>
<g>
	<g>
		<path class="st0" d="M71.4,0L71.4,0C50.7,0,31,9,17.5,24.6C7.2,36.5,1.2,51,0.2,66.6c-0.9,13.4,2.1,27,8.5,38.8
			c3.8-9.1,7.5-17.4,11-24.8C20,80,20.3,79,20.2,78c-2-14.7,2.5-29.4,12.1-40.5c9.8-11.3,24.1-17.8,39.1-17.8
			c13.5,0,26.3,5.2,36,14.6c19.1,18.5,20.9,49.2,4,69.9c-9.7,11.9-24.1,18.7-39.6,18.9c-1,0-2,0.5-2.5,0.8
			c-6.8,4.5-14.5,9.3-22.9,14.3c8,3,16.4,4.5,25,4.5c23,0,43.9-10.6,57.6-29.2c20.7-28.1,17.6-67.9-7.1-92.6
			C108.3,7.4,90.4,0,71.4,0z"/>
		<path class="st0" d="M71.8,47.6c-6.6,0-13.1,2.7-17.9,7.4l-0.8,0.8c-12.5,14.6-30.8,59.9-39.2,81.8c20.7-11.7,63.6-36.7,75.6-50.5
			l0.1-0.1l0,0c4.3-5,6.3-11.4,5.7-18.1c-0.7-6.6-4-12.6-9.3-16.6C81.9,49.2,77,47.6,71.8,47.6L71.8,47.6"/>
		<line class="st0" x1="71.8" y1="42.6" x2="71.8" y2="42.6"/>
	</g>
	<g>
		<path class="st0" d="M243.9,52.4c-2.8-5.6-6.8-9.9-12-13c-5.2-3.1-11.3-4.6-18.3-4.6s-13.1,1.5-18.3,4.6c-5.2,3.1-9.2,7.4-12,13
			s-4.2,12.1-4.2,19.6s1.4,13.9,4.2,19.5s6.8,9.9,12,13s11.3,4.6,18.3,4.6s13.1-1.5,18.3-4.6s9.2-7.4,12-13s4.2-12.1,4.2-19.5
			S246.8,58,243.9,52.4z M229.1,83.8c-1.3,3.6-3.2,6.4-5.7,8.5c-2.6,2.1-5.8,3.2-9.6,3.2c-3.9,0-7.2-1.1-9.7-3.2
			c-2.6-2.1-4.5-4.9-5.8-8.5s-1.9-7.5-1.9-11.9s0.6-8.4,1.9-12c1.3-3.6,3.2-6.4,5.8-8.6c2.6-2.1,5.8-3.2,9.7-3.2
			c3.8,0,7,1.1,9.6,3.2c2.6,2.1,4.5,5,5.7,8.6c1.3,3.6,1.9,7.6,1.9,12C231,76.2,230.3,80.2,229.1,83.8z"/>
		<path class="st0" d="M286.5,108.6c5.4,0,10-1.3,13.7-3.8c3.7-2.6,6.4-5.9,8-9.9h0.8v12.7h16.5v-72h-17v41.7c0,3.7-0.8,6.7-2.3,9.1
			s-3.4,4.2-5.8,5.5s-4.8,1.8-7.3,1.8c-4.1,0-7.3-1.3-9.8-4s-3.8-6.3-3.8-10.9V35.6h-17v45.9c0,5.8,1,10.7,3,14.7s4.9,7.1,8.5,9.2
			C277.7,107.5,281.8,108.6,286.5,108.6z"/>
		<path class="st0" d="M375.3,94.1c-0.9,0.2-1.9,0.2-2.9,0.2c-1.4,0-2.7-0.2-3.8-0.7c-1.2-0.4-2.1-1.3-2.8-2.5
			c-0.7-1.2-1.1-2.9-1.1-5.2V48.7h14.2V35.6h-14.2V18.4h-17v17.2h-10.2v13.1h10.2v40.1c0,4.5,0.9,8.3,2.9,11.3s4.7,5.2,8.1,6.6
			s7.2,2.1,11.5,1.9c2.4-0.1,4.4-0.3,6.1-0.7c1.7-0.4,3-0.7,3.9-1l-2.9-13.3C376.8,93.8,376.1,93.9,375.3,94.1z"/>
		<rect x="394.5" y="11.6" class="st0" width="17" height="96"/>
		<path class="st0" d="M478.7,104.4c5.2-3.1,9.2-7.4,12-13s4.2-12.1,4.2-19.5s-1.4-14-4.2-19.6c-2.8-5.6-6.8-9.9-12-13
			c-5.2-3.1-11.3-4.6-18.3-4.6s-13.1,1.5-18.3,4.6c-5.2,3.1-9.2,7.4-12,13s-4.2,12.1-4.2,19.6s1.4,13.9,4.2,19.5
			c2.8,5.6,6.8,9.9,12,13s11.3,4.6,18.3,4.6C467.4,109.1,473.5,107.5,478.7,104.4z M445,83.8c-1.3-3.6-1.9-7.5-1.9-11.9
			s0.6-8.4,1.9-12s3.2-6.4,5.8-8.6c2.6-2.1,5.8-3.2,9.7-3.2c3.8,0,7,1.1,9.6,3.2c2.6,2.1,4.5,5,5.7,8.6c1.3,3.6,1.9,7.6,1.9,12
			s-0.6,8.3-1.9,11.9s-3.2,6.4-5.7,8.5c-2.6,2.1-5.8,3.2-9.6,3.2c-3.9,0-7.2-1.1-9.7-3.2C448.2,90.2,446.3,87.3,445,83.8z"/>
		<path class="st0" d="M575.2,71.9c0-7.4-1.4-14-4.2-19.6s-6.8-9.9-12-13c-5.2-3.1-11.3-4.6-18.3-4.6s-13.1,1.5-18.3,4.6
			c-5.2,3.1-9.2,7.4-12,13s-4.2,12.1-4.2,19.6s1.4,13.9,4.2,19.5c2.8,5.6,6.8,9.9,12,13s11.3,4.6,18.3,4.6s13.1-1.5,18.3-4.6
			s9.2-7.4,12-13S575.2,79.4,575.2,71.9z M556.1,83.8c-1.3,3.6-3.2,6.4-5.7,8.5c-2.6,2.1-5.8,3.2-9.6,3.2c-3.9,0-7.2-1.1-9.7-3.2
			c-2.6-2.1-4.5-4.9-5.8-8.5s-1.9-7.5-1.9-11.9s0.6-8.4,1.9-12c1.3-3.6,3.2-6.4,5.8-8.6c2.6-2.1,5.8-3.2,9.7-3.2
			c3.8,0,7,1.1,9.6,3.2c2.6,2.1,4.5,5,5.7,8.6c1.3,3.6,1.9,7.6,1.9,12C558,76.2,557.4,80.2,556.1,83.8z"/>
		<polygon class="st0" points="625.5,66.7 653.4,35.6 633.6,35.6 607.7,64.5 606.5,64.5 606.5,11.6 589.5,11.6 589.5,107.6 
			606.5,107.6 606.5,83.4 612.7,76.8 634.8,107.6 655.1,107.6 		"/>
	</g>
</g>
</svg>
