<?xml version="1.0" encoding="utf-8"?>
<!-- Generator: Adobe Illustrator 24.1.2, SVG Export Plug-In . SVG Version: 6.00 Build 0)  -->
<svg version="1.1" id="Слой_1" xmlns="http://www.w3.org/2000/svg" xmlns:xlink="http://www.w3.org/1999/xlink" x="0px" y="0px"
	 viewBox="0 0 60 42" style="enable-background:new 0 0 60 42;" xml:space="preserve">
<style type="text/css">
	.st0{fill:#FFFFFF;}
</style>
<desc>Created with Sketch.</desc>
<g>
	<g>
		<path class="st0" d="M14,32c-1.7,0-3,1.3-3,3s1.3,3,3,3s3-1.3,3-3C17,33.3,15.7,32,14,32L14,32z M14,36c-0.6,0-1-0.4-1-1
			s0.4-1,1-1s1,0.4,1,1C15,35.6,14.6,36,14,36L14,36z"/>
		<path class="st0" d="M46,32c-1.7,0-3,1.3-3,3s1.3,3,3,3s3-1.3,3-3C49,33.3,47.7,32,46,32L46,32z M46,36c-0.6,0-1-0.4-1-1
			s0.4-1,1-1s1,0.4,1,1C47,35.6,46.6,36,46,36z"/>
		<path class="st0" d="M52.3,10c-0.6-0.6-1.4-1-2.2-1H41V3c0-1.7-1.3-3-3-3H3C1.3,0,0,1.3,0,3v26c0,0.3,0.1,0.5,0.3,0.7
			C0.5,29.9,0.7,30,1,30h1v3c0,1.7,1.3,3,3,3h2.1c0.5,3.4,3.4,6,6.9,6s6.4-2.6,6.9-6h18.2c0.5,3.4,3.4,6,6.9,6s6.4-2.6,6.9-6H57
			c1.7,0,3-1.3,3-3V19.8c0-0.7-0.3-1.4-0.8-2L52.3,10z M50.9,11.3l6.9,7.8c0.2,0.2,0.3,0.4,0.3,0.7V22H48c-0.6,0-1-0.4-1-1V11h3.1
			C50.4,11,50.7,11.1,50.9,11.3z M39.1,34H35v-4h6.1C40,31.1,39.3,32.5,39.1,34z M2,3c0-0.6,0.4-1,1-1h35c0.6,0,1,0.4,1,1v25H2V3z
			 M18.9,30H24v4h-3.1C20.7,32.5,20,31.1,18.9,30L18.9,30z M4,33v-3h5.1c-1.1,1.1-1.8,2.5-2,4H5C4.4,34,4,33.6,4,33z M14,40
			c-2.8,0-5-2.2-5-5s2.2-5,5-5s5,2.2,5,5C19,37.8,16.8,40,14,40L14,40z M26,34v-4h7v4H26z M46,40c-2.8,0-5-2.2-5-5s2.2-5,5-5
			s5,2.2,5,5C51,37.8,48.8,40,46,40L46,40z M58,33c0,0.6-0.4,1-1,1h-4.1c-0.5-3.4-3.4-6-6.9-6h-5V11h4v10c0,1.7,1.3,3,3,3h10V33z"/>
	</g>
</g>
</svg>
