<?xml version="1.0" encoding="utf-8"?>
<!-- Generator: Adobe Illustrator 24.1.2, SVG Export Plug-In . SVG Version: 6.00 Build 0)  -->
<svg version="1.1" id="Слой_1" xmlns="http://www.w3.org/2000/svg" xmlns:xlink="http://www.w3.org/1999/xlink" x="0px" y="0px"
	 viewBox="0 0 110 33.1" style="enable-background:new 0 0 110 33.1;" xml:space="preserve">
<style type="text/css">
	.st0{fill:none;}
	.st1{fill:#FFFFFF;}
</style>
<desc>Created with Sketch.</desc>
<g>
	<path class="st0" d="M14,21c-2.8,0-5,2.2-5,5s2.2,5,5,5c2.8,0,5-2.2,5-5C19,23.2,16.8,21,14,21z M14,29c-1.7,0-3-1.3-3-3s1.3-3,3-3
		c1.7,0,3,1.3,3,3C17,27.7,15.7,29,14,29z"/>
	<path class="st0" d="M24,21L24,21l-5.1,0c1.1,1.1,1.8,2.5,2,4h1.6c0.2-1.6,1-2.9,2-4H24z"/>
	<path class="st0" d="M14,25c-0.6,0-1,0.4-1,1s0.4,1,1,1c0.6,0,1-0.4,1-1C15,25.4,14.6,25,14,25z"/>
	<path class="st0" d="M29.5,25c-0.5,0-1,0.4-1,1s0.4,1,1,1c0.5,0,1-0.4,1-1S30.1,25,29.5,25z"/>
	<path class="st0" d="M29.5,21c-2.8,0-5,2.3-5,5c0,2.8,2.3,5,5,5c2.8,0,5-2.3,5-5C34.5,23.3,32.3,21,29.5,21z M29.5,29
		c-1.7,0-3-1.3-3-3c0-1.7,1.3-3,3-3c1.7,0,3,1.3,3,3C32.5,27.7,31.2,29,29.5,29z"/>
	<path class="st0" d="M4,21v3c0,0.6,0.4,1,1,1h2.1c0.2-1.5,0.9-2.9,2-4H4z"/>
	<polygon class="st0" points="89,19 89,17.1 2,17.1 2,19 6.9,19 	"/>
	<path class="st0" d="M95,12V2h-4v17h5c3.5,0,6.4,2.6,6.9,6h4.1c0.6,0,1-0.4,1-1v-9H98C96.4,15,95,13.7,95,12z"/>
	<path class="st0" d="M100.9,2.3c-0.2-0.2-0.5-0.3-0.8-0.3H97v10c0,0.6,0.4,1,1,1h10v-2.2c0-0.2-0.1-0.5-0.3-0.7L100.9,2.3z"/>
	<path class="st0" d="M96,21c-2.8,0-5,2.2-5,5s2.2,5,5,5c2.8,0,5-2.2,5-5C101,23.2,98.8,21,96,21z M96,29c-1.7,0-3-1.3-3-3
		s1.3-3,3-3c1.7,0,3,1.3,3,3C99,27.7,97.7,29,96,29z"/>
	<path class="st0" d="M36.5,25H83v-4H34.4C35.5,22,36.2,23.4,36.5,25z"/>
	<path class="st0" d="M85,21v4h4.1c0.2-1.5,0.9-2.9,2-4H85z"/>
	<path class="st0" d="M96,25c-0.6,0-1,0.4-1,1s0.4,1,1,1c0.6,0,1-0.4,1-1C97,25.4,96.6,25,96,25z"/>
	<path class="st1" d="M14,23c-1.7,0-3,1.3-3,3s1.3,3,3,3s3-1.3,3-3C17,24.3,15.7,23,14,23z M14,27c-0.6,0-1-0.4-1-1s0.4-1,1-1
		s1,0.4,1,1C15,26.6,14.6,27,14,27z"/>
	<path class="st1" d="M96,23c-1.7,0-3,1.3-3,3s1.3,3,3,3c1.7,0,3-1.3,3-3C99,24.3,97.7,23,96,23z M96,27c-0.6,0-1-0.4-1-1s0.4-1,1-1
		c0.6,0,1,0.4,1,1C97,26.6,96.6,27,96,27z"/>
	<path class="st1" d="M109.3,8.8L102.4,1c-0.6-0.6-1.4-1-2.2-1H95H91h-2v15.1h-88c-0.6,0-1,0.4-1,1h0v0.1v0.9V19v0v1
		c0,0.3,0.1,0.5,0.3,0.7C0.5,20.9,0.7,21,1,21h1v3c0,1.7,1.3,3,3,3h2.1c0.5,3.4,3.4,6,6.9,6c3.5,0,6.4-2.6,6.9-6h1.6
		c0.5,3.4,3.4,6.1,7,6.1s6.5-2.6,7-6.1h52.6c0.5,3.4,3.4,6,6.9,6c3.5,0,6.4-2.6,6.9-6h4.1c1.7,0,3-1.3,3-3V10.8
		C110,10,109.8,9.3,109.3,8.8z M2,19v-1.9h87V19H6.9H2z M7.1,25H5c-0.6,0-1-0.4-1-1v-3h5.1C8,22.1,7.3,23.5,7.1,25z M14,31
		c-2.8,0-5-2.2-5-5s2.2-5,5-5s5,2.2,5,5C19,28.8,16.8,31,14,31z M22.6,25h-1.6c-0.2-1.5-0.9-2.9-2-4H24v0h0.6
		C23.5,22.1,22.8,23.4,22.6,25z M29.5,31.1c-2.8,0-5-2.3-5-5c0-2.8,2.3-5,5-5c2.8,0,5,2.3,5,5C34.5,28.8,32.3,31.1,29.5,31.1z
		 M83,25H36.5c-0.2-1.6-1-3-2-4H83V25z M89.1,25H85v-4h6.1C90,22.1,89.3,23.5,89.1,25z M96,31c-2.8,0-5-2.2-5-5s2.2-5,5-5
		c2.8,0,5,2.2,5,5C101,28.8,98.8,31,96,31z M108,24c0,0.6-0.4,1-1,1H103c-0.5-3.4-3.4-6-6.9-6h-5V2h4v10c0,1.7,1.3,3,3,3h10V24z
		 M108,13H98c-0.6,0-1-0.4-1-1V2h3.1c0.3,0,0.6,0.1,0.8,0.3l6.9,7.8c0.2,0.2,0.3,0.4,0.3,0.7V13z"/>
	<path class="st1" d="M29.5,23c-1.7,0-3,1.3-3,3c0,1.7,1.3,3,3,3c1.7,0,3-1.3,3-3C32.5,24.3,31.2,23,29.5,23z M29.5,27
		c-0.5,0-1-0.4-1-1s0.4-1,1-1c0.5,0,1,0.4,1,1S30.1,27,29.5,27z"/>
</g>
</svg>
