<?xml version="1.0" encoding="utf-8"?>
<!-- Generator: Adobe Illustrator 24.1.2, SVG Export Plug-In . SVG Version: 6.00 Build 0)  -->
<svg version="1.1" id="Слой_1" xmlns="http://www.w3.org/2000/svg" xmlns:xlink="http://www.w3.org/1999/xlink" x="0px" y="0px"
	 viewBox="0 0 147.6 147.6" style="enable-background:new 0 0 147.6 147.6;" xml:space="preserve">
<style type="text/css">
	.st0{fill:#FFFFFF;}
</style>
<g>
	<g>
		<path class="st0" d="M126.1,21.7C112,7.7,93.5,0,73.8,0l0,0C52.4,0,32,9.2,18,25.5C7.3,37.8,1.2,52.8,0.2,68.9
			c-0.9,13.9,2.2,27.9,8.7,40.2c3.9-9.4,7.8-18.1,11.4-25.7c0.3-0.6,0.6-1.6,0.5-2.7c-2-15.2,2.7-30.4,12.6-41.9
			c10.2-11.7,25-18.5,40.5-18.5c14,0,27.2,5.3,37.3,15.1c19.8,19.2,21.6,50.9,4.1,72.3c-10.1,12.3-25,19.4-41,19.5
			c-1,0-2.1,0.5-2.7,0.9c-7.1,4.6-15,9.5-23.7,14.8c8.2,3.1,16.9,4.6,25.9,4.6c23.7,0,45.5-11,59.7-30.2
			C154.8,88.3,151.6,47.1,126.1,21.7z"/>
		<path class="st0" d="M74.3,49.3c-6.9,0-13.6,2.8-18.5,7.7L55,57.8c-13,15.1-32,62-40.7,84.6c21.4-12,65.8-38,78.2-52.3l0.1-0.1
			l0,0c4.5-5.2,6.6-11.8,5.9-18.7s-4.1-13-9.7-17.3C84.7,50.9,79.6,49.3,74.3,49.3L74.3,49.3L74.3,49.3z"/>
	</g>
</g>
</svg>
