<?xml version="1.0" encoding="utf-8"?>
<!-- Generator: Adobe Illustrator 24.1.2, SVG Export Plug-In . SVG Version: 6.00 Build 0)  -->
<svg version="1.1" id="Слой_1" xmlns="http://www.w3.org/2000/svg" xmlns:xlink="http://www.w3.org/1999/xlink" x="0px" y="0px"
	 viewBox="0 0 110 42.1" style="enable-background:new 0 0 110 42.1;" xml:space="preserve">
<style type="text/css">
	.st0{fill:none;}
	.st1{fill:#FFFFFF;}
</style>
<desc>Created with Sketch.</desc>
<g>
	<path class="st0" d="M24.6,30H24v0h-5.1c1.1,1.1,1.8,2.5,2,4h1.6C22.8,32.4,23.5,31.1,24.6,30z"/>
	<path class="st0" d="M36.5,34H83v-4H34.4C35.5,31,36.2,32.4,36.5,34z"/>
	<path class="st0" d="M14,30c-2.8,0-5,2.2-5,5s2.2,5,5,5c2.8,0,5-2.2,5-5C19,32.2,16.8,30,14,30z M14,38c-1.7,0-3-1.3-3-3s1.3-3,3-3
		c1.7,0,3,1.3,3,3C17,36.7,15.7,38,14,38z"/>
	<path class="st0" d="M29.5,30c-2.8,0-5,2.3-5,5c0,2.8,2.3,5,5,5c2.8,0,5-2.3,5-5C34.5,32.3,32.3,30,29.5,30z M29.5,38
		c-1.7,0-3-1.3-3-3c0-1.7,1.3-3,3-3c1.7,0,3,1.3,3,3C32.5,36.7,31.2,38,29.5,38z"/>
	<path class="st0" d="M29.5,34c-0.5,0-1,0.4-1,1s0.4,1,1,1c0.5,0,1-0.4,1-1S30.1,34,29.5,34z"/>
	<path class="st0" d="M14,34c-0.6,0-1,0.4-1,1s0.4,1,1,1c0.6,0,1-0.4,1-1C15,34.4,14.6,34,14,34z"/>
	<path class="st0" d="M89,28V3c0-0.6-0.4-1-1-1H3C2.4,2,2,2.4,2,3v25H89z"/>
	<path class="st0" d="M4,30v3c0,0.6,0.4,1,1,1h2.1c0.2-1.5,0.9-2.9,2-4H4z"/>
	<path class="st0" d="M95,21V11h-4v17h5c3.5,0,6.4,2.6,6.9,6h4.1c0.6,0,1-0.4,1-1v-9H98C96.4,24,95,22.7,95,21z"/>
	<path class="st0" d="M96,30c-2.8,0-5,2.2-5,5s2.2,5,5,5c2.8,0,5-2.2,5-5C101,32.2,98.8,30,96,30z M96,38c-1.7,0-3-1.3-3-3
		s1.3-3,3-3c1.7,0,3,1.3,3,3C99,36.7,97.7,38,96,38z"/>
	<path class="st0" d="M85,30v4h4.1c0.2-1.5,0.9-2.9,2-4H85z"/>
	<path class="st0" d="M100.9,11.3c-0.2-0.2-0.5-0.3-0.8-0.3H97v10c0,0.6,0.4,1,1,1h10v-2.2c0-0.2-0.1-0.5-0.3-0.7L100.9,11.3z"/>
	<path class="st0" d="M96,34c-0.6,0-1,0.4-1,1s0.4,1,1,1c0.6,0,1-0.4,1-1C97,34.4,96.6,34,96,34z"/>
	<path class="st1" d="M14,32c-1.7,0-3,1.3-3,3s1.3,3,3,3s3-1.3,3-3C17,33.3,15.7,32,14,32z M14,36c-0.6,0-1-0.4-1-1s0.4-1,1-1
		s1,0.4,1,1C15,35.6,14.6,36,14,36z"/>
	<path class="st1" d="M96,32c-1.7,0-3,1.3-3,3s1.3,3,3,3c1.7,0,3-1.3,3-3C99,33.3,97.7,32,96,32z M96,36c-0.6,0-1-0.4-1-1s0.4-1,1-1
		c0.6,0,1,0.4,1,1C97,35.6,96.6,36,96,36z"/>
	<path class="st1" d="M109.3,17.8l-6.9-7.8c-0.6-0.6-1.4-1-2.2-1H91V3c0-1.7-1.3-3-3-3H3C1.3,0,0,1.3,0,3v26c0,0.3,0.1,0.5,0.3,0.7
		C0.5,29.9,0.7,30,1,30h1v3c0,1.7,1.3,3,3,3h2.1c0.5,3.4,3.4,6,6.9,6c3.5,0,6.4-2.6,6.9-6h1.6c0.5,3.4,3.4,6.1,7,6.1s6.5-2.6,7-6.1
		h52.6c0.5,3.4,3.4,6,6.9,6c3.5,0,6.4-2.6,6.9-6h4.1c1.7,0,3-1.3,3-3V19.8C110,19,109.8,18.3,109.3,17.8z M2,28V3c0-0.6,0.4-1,1-1
		h85c0.6,0,1,0.4,1,1v25H2z M7.1,34H5c-0.6,0-1-0.4-1-1v-3h5.1C8,31.1,7.3,32.5,7.1,34z M14,40c-2.8,0-5-2.2-5-5s2.2-5,5-5
		s5,2.2,5,5C19,37.8,16.8,40,14,40z M18.9,30H24v0h0.6c-1.1,1-1.8,2.4-2,4h-1.6C20.7,32.5,20,31.1,18.9,30z M29.5,40.1
		c-2.8,0-5-2.3-5-5c0-2.8,2.3-5,5-5c2.8,0,5,2.3,5,5C34.5,37.8,32.3,40.1,29.5,40.1z M83,34H36.5c-0.2-1.6-1-3-2-4H83V34z M89.1,34
		H85v-4h6.1C90,31.1,89.3,32.5,89.1,34z M96,40c-2.8,0-5-2.2-5-5s2.2-5,5-5c2.8,0,5,2.2,5,5C101,37.8,98.8,40,96,40z M108,33
		c0,0.6-0.4,1-1,1H103c-0.5-3.4-3.4-6-6.9-6h-5V11h4v10c0,1.7,1.3,3,3,3h10V33z M108,22H98c-0.6,0-1-0.4-1-1V11h3.1
		c0.3,0,0.6,0.1,0.8,0.3l6.9,7.8c0.2,0.2,0.3,0.4,0.3,0.7V22z"/>
	<path class="st1" d="M29.5,32c-1.7,0-3,1.3-3,3c0,1.7,1.3,3,3,3c1.7,0,3-1.3,3-3C32.5,33.3,31.2,32,29.5,32z M29.5,36
		c-0.5,0-1-0.4-1-1s0.4-1,1-1c0.5,0,1,0.4,1,1S30.1,36,29.5,36z"/>
</g>
</svg>
