<?xml version="1.0" encoding="utf-8"?>
<!-- Generator: Adobe Illustrator 24.1.2, SVG Export Plug-In . SVG Version: 6.00 Build 0)  -->
<svg version="1.1" id="Слой_1" xmlns="http://www.w3.org/2000/svg" xmlns:xlink="http://www.w3.org/1999/xlink" x="0px" y="0px"
	 viewBox="0 0 660.3 143.8" style="enable-background:new 0 0 660.3 143.8;" xml:space="preserve">
<style type="text/css">
	.st0{fill:#E3E4E3;}
</style>
<g>
	<g>
		<path class="st0" d="M122.8,21.1C109.1,7.5,91.1,0,71.9,0h0C51.1,0,31.2,9,17.6,24.8C7.2,36.8,1.2,51.4,0.2,67.1
			c-0.9,13.5,2.1,27.2,8.5,39.1c3.8-9.2,7.6-17.6,11.1-25c0.3-0.6,0.6-1.6,0.5-2.6c-1.9-14.8,2.6-29.6,12.3-40.8
			c9.9-11.4,24.3-18,39.4-18c13.6,0,26.5,5.2,36.3,14.7c19.3,18.7,21,49.6,4,70.4c-9.8,12-24.3,18.9-39.9,19c-1,0-2,0.5-2.6,0.9
			c-6.9,4.5-14.6,9.3-23.1,14.4c8,3,16.5,4.5,25.2,4.5c23.1,0,44.3-10.7,58.1-29.4C150.8,86,147.7,45.9,122.8,21.1z"/>
		<path class="st0" d="M72.4,48c-6.7,0-13.2,2.7-18,7.5l-0.8,0.8C40.9,71,22.4,116.7,14,138.7c20.8-11.7,64.1-37,76.2-50.9l0.1-0.1
			l0,0c4.4-5.1,6.4-11.5,5.7-18.2c-0.7-6.7-4-12.7-9.4-16.8C82.5,49.6,77.6,48,72.4,48L72.4,48L72.4,48z"/>
	</g>
	<g>
		<path class="st0" d="M215.4,106.9c-7.1,0-13.2-1.6-18.4-4.7c-5.2-3.1-9.2-7.5-12.1-13.1c-2.9-5.6-4.3-12.2-4.3-19.7
			s1.4-14.1,4.3-19.7c2.9-5.6,6.9-10,12.1-13.1c5.2-3.1,11.3-4.7,18.4-4.7c7.1,0,13.2,1.6,18.4,4.7c5.2,3.1,9.2,7.5,12.1,13.1
			c2.9,5.6,4.3,12.2,4.3,19.7s-1.4,14.1-4.3,19.7s-6.9,10-12.1,13.1C228.6,105.4,222.5,106.9,215.4,106.9z M215.5,93.2
			c3.8,0,7.1-1.1,9.6-3.2c2.6-2.1,4.5-5,5.8-8.6c1.3-3.6,1.9-7.6,1.9-12c0-4.4-0.6-8.5-1.9-12.1c-1.3-3.6-3.2-6.5-5.8-8.6
			c-2.6-2.1-5.8-3.2-9.6-3.2c-3.9,0-7.2,1.1-9.8,3.2c-2.6,2.1-4.5,5-5.8,8.6c-1.3,3.6-1.9,7.6-1.9,12.1c0,4.4,0.6,8.4,1.9,12
			c1.3,3.6,3.2,6.5,5.8,8.6C208.2,92.1,211.5,93.2,215.5,93.2z"/>
		<path class="st0" d="M310.9,75V32.9H328v72.6h-16.6V92.6h-0.8c-1.6,4.1-4.3,7.4-8.1,10c-3.7,2.6-8.3,3.9-13.8,3.9
			c-4.8,0-9-1.1-12.6-3.2c-3.6-2.1-6.5-5.2-8.5-9.3c-2-4.1-3.1-9-3.1-14.8V32.9h17.1v43.6c0,4.6,1.3,8.3,3.8,11
			c2.5,2.7,5.8,4.1,9.9,4.1c2.5,0,5-0.6,7.3-1.8s4.3-3.1,5.8-5.5C310.1,81.7,310.9,78.6,310.9,75z"/>
		<path class="st0" d="M381.9,32.9v13.2h-41.7V32.9H381.9z M350.4,15.5h17.1v68.2c0,2.3,0.4,4.1,1.1,5.3c0.7,1.2,1.6,2,2.8,2.5
			c1.2,0.4,2.5,0.7,3.9,0.7c1.1,0,2.1-0.1,3-0.2c0.9-0.2,1.6-0.3,2.1-0.4l2.9,13.4c-0.9,0.3-2.2,0.7-3.9,1c-1.7,0.4-3.7,0.6-6.2,0.7
			c-4.3,0.1-8.1-0.5-11.6-2c-3.4-1.4-6.2-3.7-8.2-6.7c-2-3-3-6.8-3-11.3V15.5z"/>
		<path class="st0" d="M414.8,8.7v96.8h-17.1V8.7H414.8z"/>
		<path class="st0" d="M464.1,106.9c-7.1,0-13.2-1.6-18.4-4.7c-5.2-3.1-9.2-7.5-12.1-13.1c-2.9-5.6-4.3-12.2-4.3-19.7
			s1.4-14.1,4.3-19.7c2.9-5.6,6.9-10,12.1-13.1c5.2-3.1,11.3-4.7,18.4-4.7c7.1,0,13.2,1.6,18.4,4.7c5.2,3.1,9.2,7.5,12.1,13.1
			c2.9,5.6,4.3,12.2,4.3,19.7s-1.4,14.1-4.3,19.7s-6.9,10-12.1,13.1C477.3,105.4,471.1,106.9,464.1,106.9z M464.1,93.2
			c3.8,0,7.1-1.1,9.6-3.2c2.6-2.1,4.5-5,5.8-8.6c1.3-3.6,1.9-7.6,1.9-12c0-4.4-0.6-8.5-1.9-12.1c-1.3-3.6-3.2-6.5-5.8-8.6
			c-2.6-2.1-5.8-3.2-9.6-3.2c-3.9,0-7.2,1.1-9.8,3.2c-2.6,2.1-4.5,5-5.8,8.6c-1.3,3.6-1.9,7.6-1.9,12.1c0,4.4,0.6,8.4,1.9,12
			c1.3,3.6,3.2,6.5,5.8,8.6C456.9,92.1,460.2,93.2,464.1,93.2z"/>
		<path class="st0" d="M545,106.9c-7.1,0-13.2-1.6-18.4-4.7c-5.2-3.1-9.2-7.5-12.1-13.1c-2.9-5.6-4.3-12.2-4.3-19.7
			s1.4-14.1,4.3-19.7c2.9-5.6,6.9-10,12.1-13.1c5.2-3.1,11.3-4.7,18.4-4.7c7.1,0,13.2,1.6,18.4,4.7c5.2,3.1,9.2,7.5,12.1,13.1
			c2.9,5.6,4.3,12.2,4.3,19.7s-1.4,14.1-4.3,19.7c-2.9,5.6-6.9,10-12.1,13.1C558.2,105.4,552.1,106.9,545,106.9z M545.1,93.2
			c3.8,0,7.1-1.1,9.6-3.2c2.6-2.1,4.5-5,5.8-8.6c1.3-3.6,1.9-7.6,1.9-12c0-4.4-0.6-8.5-1.9-12.1c-1.3-3.6-3.2-6.5-5.8-8.6
			c-2.6-2.1-5.8-3.2-9.6-3.2c-3.9,0-7.2,1.1-9.8,3.2c-2.6,2.1-4.5,5-5.8,8.6c-1.3,3.6-1.9,7.6-1.9,12.1c0,4.4,0.6,8.4,1.9,12
			c1.3,3.6,3.2,6.5,5.8,8.6C537.9,92.1,541.1,93.2,545.1,93.2z"/>
		<path class="st0" d="M594.2,105.5V8.7h17.1v96.8H594.2z M609.8,82.7l0-20.7h2.7l26.1-29.2h20l-32.1,35.7H623L609.8,82.7z
			 M639.8,105.5l-23.6-33l11.5-12.1l32.6,45.1H639.8z"/>
	</g>
</g>
</svg>
